<svg xmlns="http://www.w3.org/2000/svg" viewBox="0 0 59.018 59.018" fill="#242124"><path d="M58.741 54.809l-5.969-6.244a10.74 10.74 0 002.82-7.25c0-5.953-4.843-10.796-10.796-10.796S34 35.361 34 41.314 38.843 52.11 44.796 52.11c2.441 0 4.688-.824 6.499-2.196l6.001 6.277a.998.998 0 001.414.032 1 1 0 00.031-1.414zM36 41.314c0-4.85 3.946-8.796 8.796-8.796s8.796 3.946 8.796 8.796-3.946 8.796-8.796 8.796S36 46.164 36 41.314zM10.431 16.088c0 3.07 2.498 5.568 5.569 5.568s5.569-2.498 5.569-5.568c0-3.071-2.498-5.569-5.569-5.569s-5.569 2.498-5.569 5.569zm9.138 0c0 1.968-1.602 3.568-3.569 3.568s-3.569-1.601-3.569-3.568 1.602-3.569 3.569-3.569 3.569 1.601 3.569 3.569z"/><path d="M30.882 28.987l9.18-10.054 11.262 10.323a1 1 0 001.351-1.475l-12-11a1 1 0 00-1.414.063l-9.794 10.727-4.743-4.743a1.003 1.003 0 00-1.368-.044L6.339 37.768a1 1 0 101.322 1.501l16.313-14.362 7.319 7.318a.999.999 0 101.414-1.414l-1.825-1.824z"/><path d="M30 46.518H2v-42h54v28a1 1 0 102 0v-29a1 1 0 00-1-1H1a1 1 0 00-1 1v44a1 1 0 001 1h29a1 1 0 100-2z"/></svg>